#!OML:ASF Y:\EmotionMaleHayes\Project 1\Capture day 1\Session 1\Male1.ASF
:FULLY-SPECIFIED
:DEGREES
2026
root -27.7853 16.6861 8.95469 538.185 -13.8558 534.88
lowerback 5.51655 -2.00767 -4.24706
upperback 1.06861 -2.94152 1.81001
thorax -1.67972 -1.47427 4.45165
lowerneck -21.7365 0.0376364 3.76657
upperneck 23.6232 -2.0974 1.22672
head 11.2709 -0.625636 -0.546905
rclavicle 7.95139e-015 1.59028e-014
rhumerus -50.0133 -5.3726 -78.002
rradius 39.4544
rwrist -2.36596
rhand -4.76929 -32.7477
rfingers 7.12502
rthumb 21.0151 -61.6291
lclavicle 7.95139e-015 1.59028e-014
lhumerus -40.1541 -25.2641 104.963
lradius 40.8096
lwrist 3.44364
lhand -16.4008 -21.7439
lfingers 7.12502
lthumb 9.8135 8.00743
rfemur -2.80069 -15.9478 22.3906
rtibia 9.93619
rfoot -13.4445 -5.38827
rtoes 42.3066
lfemur 11.9151 11.4694 -19.2839
ltibia 48.0413
lfoot 5.28273 -1.52099
ltoes -12.6309
2027
root -27.8131 16.6839 8.86166 537.712 -13.2234 535.451
lowerback 5.7755 -1.86212 -3.51322
upperback 1.16956 -2.72102 1.83445
thorax -1.77732 -1.37047 4.05911
lowerneck -21.5315 -0.477454 3.40755
upperneck 23.4976 -2.71843 1.31773
head 11.1806 -0.936384 -0.550518
rclavicle -7.40473e-015 -1.19271e-014
rhumerus -49.6281 -4.75093 -78.6819
rradius 39.8233
rwrist -2.2117
rhand -4.49484 -32.5511
rfingers 7.12502
rthumb 21.2787 -61.403
lclavicle -7.40473e-015 -1.19271e-014
lhumerus -40.5244 -24.8262 104.542
lradius 40.4496
lwrist 3.21502
lhand -16.4955 -21.8146
lfingers 7.12502
lthumb 9.72211 7.941
rfemur -1.98849 -15.5534 22.9504
rtibia 9.86269
rfoot -13.6063 -5.02404
rtoes 41.8606
lfemur 11.4465 11.5401 -18.2554
ltibia 49.2001
lfoot 4.18969 -1.07368
ltoes -12.4853
2028
root -27.8391 16.6813 8.77016 537.312 -12.5601 535.956
lowerback 6.03719 -1.68274 -2.9653
upperback 1.21657 -2.46152 1.93143
thorax -1.91869 -1.24456 3.84383
lowerneck -21.408 -1.04641 3.0366
upperneck 23.547 -3.38839 1.25772
head 11.1706 -1.28836 -0.616194
rclavicle 7.90169e-015 -1.90833e-014
rhumerus -49.3343 -4.04347 -79.2414
rradius 40.2462
rwrist -2.23989
rhand -4.58927 -32.2972
rfingers 7.12502
rthumb 21.188 -61.1593
lclavicle 7.90169e-015 -1.90833e-014
lhumerus -40.8185 -24.1967 104.13
lradius 39.9728
lwrist 2.81613
lhand -16.6954 -21.9273
lfingers 7.12502
lthumb 9.52925 7.83722
rfemur -1.22081 -15.3591 23.4161
rtibia 9.72276
rfoot -13.5921 -4.45664
rtoes 40.968
lfemur 10.9073 11.6516 -17.3167
ltibia 50.196
lfoot 2.95916 -0.39746
ltoes -12.6376
2029
root -27.8662 16.6832 8.68073 536.995 -11.8426 536.512
lowerback 6.17078 -1.48901 -2.223
upperback 1.25682 -2.16482 1.95649
thorax -2.00446 -1.1019 3.43462
lowerneck -21.2592 -1.65355 2.67095
upperneck 23.5759 -4.1679 1.36545
head 11.1547 -1.67073 -0.638005
rclavicle 1.12313e-014 2.94201e-014
rhumerus -48.8303 -3.59393 -79.7954
rradius 40.3543
rwrist -2.11626
rhand -4.86914 -32.0188
rfingers 7.12502
rthumb 20.9191 -60.9109
lclavicle 1.12313e-014 2.94201e-014
lhumerus -41.0202 -23.4002 103.523
lradius 39.4093
lwrist 2.30635
lhand -17.1165 -22.0234
lfingers 7.12502
lthumb 9.12291 7.75924
rfemur -0.678327 -15.0551 23.9664
rtibia 9.79797
rfoot -13.8133 -3.84375
rtoes 41.0742
lfemur 10.2376 11.8886 -16.2801
ltibia 51.1396
lfoot 1.79144 0.363268
ltoes -12.6808
2030
root -27.8944 16.687 8.59092 536.686 -11.121 536.939
lowerback 6.27049 -1.34975 -1.43399
upperback 1.34006 -1.93775 1.82605
thorax -2.02214 -0.995486 2.84007
lowerneck -21.0125 -2.19008 2.18208
upperneck 23.4903 -4.90325 1.83184
head 11.0973 -2.00285 -0.499386
rclavicle 1.6524e-014 5.56597e-015
rhumerus -48.3369 -3.06472 -80.5772
rradius 40.5548
rwrist -2.05715
rhand -4.95142 -31.648
rfingers 7.12502
rthumb 20.8401 -60.5487
lclavicle 1.6524e-014 5.56597e-015
lhumerus -41.2914 -22.5641 102.67
lradius 38.9761
lwrist 1.86797
lhand -17.4376 -22.1188
lfingers 7.12502
lthumb 8.81311 7.67721
rfemur 0.0389097 -15.1757 24.2649
rtibia 9.71914
rfoot -13.8328 -2.90992
rtoes 41.033
lfemur 9.57172 12.015 -15.414
ltibia 52.0136
lfoot 0.682226 1.22169
ltoes -10.9462
2031
root -27.9195 16.6872 8.50114 536.398 -10.3996 537.321
lowerback 6.38168 -1.19678 -1.1443
upperback 1.43442 -1.72534 2.01516
thorax -2.00213 -0.897598 2.85813
lowerneck -20.7135 -2.71475 1.50918
upperneck 23.2435 -5.43545 1.98103
head 10.9692 -2.29451 -0.408298
rclavicle 1.66234e-014 -2.94201e-014
rhumerus -47.9284 -2.71665 -80.6254
rradius 41.223
rwrist -1.78083
rhand -4.67828 -31.3974
rfingers 7.12502
rthumb 21.1025 -60.2691
lclavicle 1.66234e-014 -2.94201e-014
lhumerus -41.3805 -21.2181 102.021
lradius 38.4576
lwrist 1.23539
lhand -17.3129 -22.2871
lfingers 7.12502
lthumb 8.93344 7.50381
rfemur 0.803823 -15.0739 24.6186
rtibia 9.51397
rfoot -13.8008 -2.4408
rtoes 39.8909
lfemur 8.92863 12.0487 -14.623
ltibia 52.7043
lfoot -0.443869 2.24161
ltoes -10.6586
